<?xml version="1.0" standalone="no"?><!DOCTYPE svg PUBLIC "-//W3C//DTD SVG 1.1//EN" "http://www.w3.org/Graphics/SVG/1.1/DTD/svg11.dtd"><svg t="1754017915658" class="icon" viewBox="0 0 1025 1024" version="1.1" xmlns="http://www.w3.org/2000/svg" p-id="12439" xmlns:xlink="http://www.w3.org/1999/xlink" width="200.1953125" height="200"><path d="M606.523 511.392c75.264-35.584 127.552-112 127.552-200.608 0-122.432-99.616-222.048-222.048-222.048s-222.048 99.616-222.048 222.048c0 88.608 52.32 165.024 127.552 200.608-187.328 46.24-273.952 229.472-273.952 401.6 0 12.32 9.984 22.24 22.24 22.24 12.32 0 22.272-9.952 22.272-22.24 0-177.44 101.344-368.448 323.904-368.448s323.904 191.008 323.904 368.448c0 12.32 9.984 22.24 22.272 22.24 12.288 0 22.24-9.952 22.24-22.24 0.064-172.128-86.528-355.36-273.888-401.6zM334.491 310.784c0-97.888 79.616-177.536 177.536-177.536s177.536 79.648 177.536 177.536c0 97.856-79.616 177.472-177.536 177.472S334.491 408.64 334.491 310.784z" fill="" p-id="12440"></path><path d="M240.891 497.056c10.112-0.96 18.272-8.672 19.872-18.72 1.568-10.048-3.904-19.936-13.248-23.936-4.48-1.92-109.184-48.064-100.864-156.48 9.536-123.456 144-138.4 149.824-139.008 12.192-1.184 21.152-12.032 19.968-24.256-1.152-12.256-11.872-21.184-24.256-20.064-61.344 5.856-180 50.976-189.952 179.904-6.112 80.192 36.992 137.824 79.648 171.616-74.144 25.824-195.648 99.2-180.608 301.216 0.864 11.68 10.624 20.64 22.144 20.64 0.576 0 1.12 0 1.696-0.064 12.256-0.928 21.472-11.616 20.544-23.872-18.048-242.88 186.592-266.144 195.232-266.976z m601.248-30.944c42.656-33.856 85.792-91.424 79.584-171.616-9.92-128.896-128.544-174.016-189.888-179.904-12.32-1.088-23.104 7.84-24.256 20.032-1.184 12.224 7.808 23.104 20.032 24.288 5.728 0.544 140.16 14.784 149.728 138.976 8.352 108.416-96.384 154.592-100.768 156.448-9.376 3.968-14.848 13.792-13.312 23.84 1.504 10.048 9.696 17.856 19.808 18.848 8.704 0.832 213.344 24.096 195.296 266.944-0.928 12.256 8.288 22.944 20.544 23.872 0.576 0.064 1.12 0.064 1.696 0.064 11.52 0 21.28-8.928 22.144-20.64 15.072-201.952-106.432-275.328-180.608-301.152z" fill="" p-id="12441"></path></svg>