<svg t="1752127684548" class="icon" viewBox="0 0 1024 1024" version="1.1" xmlns="http://www.w3.org/2000/svg" p-id="7691" width="200" height="200"><path d="M299.887 814.53a36.46 36.46 0 0 1-25.78-62.24L514.397 512l-240.29-240.29a36.46 36.46 0 0 1 51.56-51.56l246.77 246.73a63.83 63.83 0 0 1 0 90.2l-246.77 246.77a36.35 36.35 0 0 1-25.78 10.68z" p-id="7692"></path><path d="M554.667 814.53a36.46 36.46 0 0 1-25.78-62.24L769.137 512l-240.29-240.29a36.46 36.46 0 0 1 51.56-51.56l246.77 246.73a63.66 63.66 0 0 1 0 90.2l-246.76 246.77a36.35 36.35 0 0 1-25.75 10.68z" p-id="7693"></path></svg>
