<?xml version="1.0" standalone="no"?><!DOCTYPE svg PUBLIC "-//W3C//DTD SVG 1.1//EN" "http://www.w3.org/Graphics/SVG/1.1/DTD/svg11.dtd"><svg t="1754017947040" class="icon" viewBox="0 0 1024 1024" version="1.1" xmlns="http://www.w3.org/2000/svg" p-id="13452" xmlns:xlink="http://www.w3.org/1999/xlink" width="200" height="200"><path d="M661.333333 192c62.826667 0 96 45.973333 96 102.506667V301.92c-1.226667 53.973333-48 119.946667-131.093333 185.866667a926.986667 926.986667 0 0 1-111.413333 74.666666 5.333333 5.333333 0 0 1-5.333334 0 926.986667 926.986667 0 0 1-111.413333-74.666666C314.666667 421.653333 268.106667 355.68 266.666667 301.706667v-1.706667-5.706667C266.666667 237.76 299.413333 192 362.666667 192c114.453333 0 143.093333 86.56 148.32 107.36a1.066667 1.066667 0 0 0 2.08 0C518.666667 278.4 548.8 192 661.333333 192m10.666667-74.666667c-110.24 0-152.533333 72.053333-159.093333 84.64a1.013333 1.013333 0 0 1-1.813334 0C504.586667 189.173333 462.613333 117.333333 352 117.333333c-88.373333 0-160 79.093333-160 176.96v9.12c4.16 181.706667 288.586667 329.493333 317.44 344a5.333333 5.333333 0 0 0 4.693333 0c28.853333-14.506667 313.28-162.293333 317.44-344v-9.12C832 196.426667 760.373333 117.333333 672 117.333333zM456.64 684.64a362.666667 362.666667 0 0 1-269.333333-198.293333 5.333333 5.333333 0 0 0-4.693334-2.933334H112.373333a5.333333 5.333333 0 0 0-4.96 7.253334 437.333333 437.333333 0 0 0 275.36 253.333333 5.333333 5.333333 0 0 1 3.733334 5.013333V901.333333a5.333333 5.333333 0 0 0 5.333333 5.333334h64a5.333333 5.333333 0 0 0 5.333333-5.333334v-211.466666a5.333333 5.333333 0 0 0-4.533333-5.226667zM911.626667 483.413333h-70.24a5.333333 5.333333 0 0 0-4.693334 2.933334 362.666667 362.666667 0 0 1-269.333333 198.293333 5.333333 5.333333 0 0 0-4.533333 5.333333V901.333333a5.333333 5.333333 0 0 0 5.333333 5.333334h64a5.333333 5.333333 0 0 0 5.333333-5.333334v-152.266666a5.333333 5.333333 0 0 1 3.733334-5.013334A437.333333 437.333333 0 0 0 916.586667 490.666667a5.333333 5.333333 0 0 0-4.96-7.253334z" p-id="13453"></path></svg>