<?xml version="1.0" standalone="no"?><!DOCTYPE svg PUBLIC "-//W3C//DTD SVG 1.1//EN" "http://www.w3.org/Graphics/SVG/1.1/DTD/svg11.dtd"><svg t="1754018029689" class="icon" viewBox="0 0 1024 1024" version="1.1" xmlns="http://www.w3.org/2000/svg" p-id="15573" xmlns:xlink="http://www.w3.org/1999/xlink" width="200" height="200"><path d="M834.37037 56.888889H189.62963C116.432593 56.888889 56.888889 116.432593 56.888889 189.62963v644.74074c0 73.197037 59.543704 132.740741 132.740741 132.740741h644.74074c73.197037 0 132.740741-59.543704 132.740741-132.740741V189.62963c0-73.197037-59.543704-132.740741-132.740741-132.740741z m-322.37037 121.66637c0 20.252444-17.673481 37.925926-37.925926 37.925926-20.555852 0-37.925926-16.801185-37.925926-37.925926 0-50.062222 75.851852-49.872593 75.851852 0z m-151.703704 0c0 20.252444-17.673481 37.925926-37.925926 37.925926-20.821333 0-37.925926-16.990815-37.925926-37.925926 0-51.01037 75.851852-49.645037 75.851852 0z m-189.629629-37.925926c22.224593 0.18963 37.925926 18.469926 37.925926 37.925926 0 20.252444-17.673481 37.925926-37.925926 37.925926-20.48 0-37.925926-16.763259-37.925926-37.925926a37.546667 37.546667 0 0 1 37.925926-37.925926zM891.259259 834.37037c0 31.478519-25.41037 56.888889-56.888889 56.888889H189.62963c-31.478519 0-56.888889-25.41037-56.888889-56.888889V357.110519c0-31.478519 25.41037-56.888889 56.888889-56.888889h644.74074c31.478519 0 56.888889 25.41037 56.888889 56.888889V834.37037z" p-id="15574"></path><path d="M403.228444 734.625185a37.963852 37.963852 0 0 1-30.264888-23.514074l-81.047704-202.638222a37.925926 37.925926 0 0 1 70.428444-28.141037l55.902815 139.757037 63.336296-84.992a37.925926 37.925926 0 0 1 60.833186 0l63.336296 84.954074 55.902815-139.719111a37.925926 37.925926 0 1 1 70.428444 28.141037l-81.009778 202.638222a37.963852 37.963852 0 0 1-65.611851 8.609185L512 621.188741l-73.462519 98.531555a37.925926 37.925926 0 0 1-35.346962 14.904889z" p-id="15575"></path></svg>