<svg t="1753953254040" class="icon" viewBox="0 0 1075 1024" version="1.1" xmlns="http://www.w3.org/2000/svg" p-id="11588" width="200" height="200"><path d="M160 754.5344v53.8624c0 56.4224 43.008 103.3216 98.6624 107.52l7.9872 0.3072H373.248c29.44 0 53.2992 24.1152 53.2992 53.8624 0 29.7984-23.8592 53.9136-53.2992 53.9136H266.6496c-117.8112 0-213.2992-96.512-213.2992-215.552v-53.9136c0-29.7472 23.8592-53.9136 53.2992-53.9136s53.3504 24.1664 53.3504 53.9136z m699.9552-306.432l213.3504 538.9312a27.1872 27.1872 0 0 1-2.7136 25.1392 26.624 26.624 0 0 1-22.1184 11.8272h-57.4976a26.624 26.624 0 0 1-24.7296-16.896l-57.344-144.7936h-218.112l-57.1904 144.7424a26.624 26.624 0 0 1-24.7808 16.9472H551.424a26.624 26.624 0 0 1-22.0672-11.8272 27.1872 27.1872 0 0 1-2.6624-25.1392l213.2992-538.9312c4.0448-10.24 13.824-16.896 24.7296-16.896h70.5024a26.624 26.624 0 0 1 24.7808 16.896z m-60.0064 138.5472l-66.56 167.8848h132.9152l-66.3552-167.936zM319.9488 26.9312v80.896h186.6752c14.7456 0 26.624 12.032 26.624 26.9312v323.328c0 14.8992-11.8784 26.9824-26.624 26.9824H319.9488v134.7072c0 14.848-11.9296 26.9824-26.624 26.9824H239.9744a26.8288 26.8288 0 0 1-26.624-26.9824V485.0688H26.624a26.5216 26.5216 0 0 1-18.8416-7.8848A27.136 27.136 0 0 1 0 458.0864V134.7584a27.136 27.136 0 0 1 7.8336-19.0976 26.5216 26.5216 0 0 1 18.8416-7.8848h186.624V26.9312A27.136 27.136 0 0 1 221.184 7.8848 26.5216 26.5216 0 0 1 239.9744 0H293.376c7.0656 0 13.824 2.816 18.8416 7.8848a27.136 27.136 0 0 1 7.7824 19.0464z m480 26.9824c117.76 0 213.2992 96.512 213.2992 215.552v53.9136c0 29.7472-23.9104 53.8624-53.3504 53.8624a53.6064 53.6064 0 0 1-53.2992-53.8624V269.4656c0-28.5696-11.264-56.0128-31.232-76.1856a106.0864 106.0864 0 0 0-75.4176-31.5904H693.248A53.6064 53.6064 0 0 1 640 107.776c0-29.7472 23.8592-53.8624 53.2992-53.8624h106.7008zM213.2992 215.552H106.6496v161.6384h106.6496V215.6032z m213.3504 0H319.9488v161.6384h106.7008V215.6032z" p-id="11589"></path></svg>
