<svg xmlns="http://www.w3.org/2000/svg" viewBox="0 0 333.422 72"><path d="M13.22 11.11h1.48q.63 0 .63.91h.91q0-.91.64-.91h3.58q.63 0 .63 1.55h3.31l.91.56h2.46q.64 0 1.2-.28 2.81 0 3.58 4.5.43 3.51.92 3.94-.99 1.47-2.39 2.1 0 .36-.28.36l-2.18-1.55q0-.42-.57-1.2v-1.47q-.91 0-.91-.64 2.11 0 2.11-1.19v-.35h-2.11v1.54q-.63 0-.63-.63v-.91l.63-.92v-1.19h-.28q-.77 0-1.27 2.74h-.56q-3.37-1.41-3.37-2.11h-6.33q0 1.06-2.39 1.2-3.66 1.05-3.66 4.57 0 1.19-.91 1.19v1.48q1.12 0 1.83 1.83v.91q3.79 2.25 4.85 3.66.7 0 1.47.56h.64l.91-.56h1.48q.7.56 1.83.56l-.29 1.55v2.74h1.2v-1.27l-.63-.84q.14-.63.63-.63h3.02q1.34 1.19 1.55 1.19h2.67l3.66 3.03q2.74 3.3 2.74 5.13-.35.63-.35.91.63.14.63.63v3.03l-.63.91v3.31q-.85 2.74-1.2 2.74-1.19 2.6-3.02 3.02 0 .92-.56.92h-1.55q0 .42-2.74 2.39 0 .63-.56.63h-7.32q-.56 0-.56-.91h-5.48l-.92-.64H10.2l-.92.64H7.73q0 .91-.56.91h-.35q-3.3-2.67-3.3-5.13-1.06-5.14-2.11-5.14v-2.46q0-.42 1.54-1.19h1.48q.63.07.63.63t-.91.56v1.55h.56q.35 0 1.55-2.11h.28q1.19 2.11 1.55 2.11 1.19 0 2.67 2.11 2.46.42 2.46 2.74h1.48q2.74.85 2.74 1.2v.28h4.22l.91.63h.35q1.06-1.26 4.22-3.02 1.83-1.27 1.83-3.94.28 0 .28-.35v-2.11l-2.11-4.5h-1.55q-1.54-.77-3.02-2.46l-.56-.28-.92.63h-.28q-.7-.56-3.37-.91v-.64q0-.63 1.54-.63v-1.48q-.49 0-1.26-.63h-.28q0 1.83-1.2 2.74h-.91q-2.74-.98-2.74-2.11h-1.48q-5.06-2.32-5.13-2.74l-.92-1.19v-1.55q-.84 0-1.54-2.11-.57 0-.92-3.02-.28 0-.28-.28v-2.47q.42-.63 1.2-4.21Q5.2 18 6.54 15.33q2.74-2.11 3.94-2.11 0-1.2.63-1.2h1.48q0-.91.63-.91Zm29.67.91h.35q.64 0 .64.92h.63q0-.92.63-.92h2.18q.63 0 .63.92h3.8q0-.92.63-.92h3.17q.63 0 .63.92h2.88q1.55.84 1.55 1.26v1.62q-.7 1.55-3.16 1.55-.5 0-1.27.63h-1.55v6.96l.64.99v3.16l-.64.91v10.13l.64.98v6.96l-.64.92v.63l.64.99v2.17q.91 0 1.26 1.62 1.9.42 1.9 1.55h1.27q0-.92.63-.92h.28l2.25 1.55v.63l-1.62 2.25q-.49 0-1.26.64h-4.71l-2.25-1.27h-.92l-.98.63h-1.55l-.98-.63h-.29l-3.79 1.27h-2.25v.63h-.63q0-.42-1.55-1.27V56.6q.7-1.47 2.18-2.18h1.62l.91.63h.98q.43 0 .92-.98v-2.18l-.64-.98q.64 0 .64-.64V44.3q0-.71-.28-1.27.28-.56.28-1.26v-2.25l-.64-.92v-.98l.64-.92v-.98l-.64-.92V21.52q-.91 0-.91-.64 0-.63.91-.63v-1.62q-.49 0-1.26-.63h-1.55l-3.16 1.27q-2.25-1.55-2.25-1.9v-1.55q0-.42 2.25-1.9 0-.98.63-.98h1.55q0-.92.63-.92Zm26.23-.21h3.93q.43.49 3.87.92 0 .28.35.28h1.48l.91-.56h6.33l.85.56h3.02l.91-.56h2.11l.92.56h2.39l.91-.56h3.59q4.5 2.74 4.5 4.78 1.12 0 1.76 5.06.35 0 .35.35-1.97 2.95-2.75 2.95h-.56q-2.11-.56-2.74-2.67-.42 0-2.39-2.11-.49 0-2.39-1.47-.35 0-3.31-1.2h-3.02q0 .7-.56 1.48v9.91l.56.92v1.47l-.56.92v16.52l.56.91v2.96q1.27 0 3.94 2.11.77 0 1.47 1.82v.92q-1.26 2.04-1.75 2.04h-2.11q-.71 0-1.2.35-.56-.35-1.26-.35h-1.48l-.91.63q0-.63-.57-.63h-.63l-.91.63h-2.39l-.92-.63-.84.63h-5.7q-2.04-1.2-2.74-3.3v-.92q0-.49 3.02-2.39 0-.28.29-.28h3.3q.42 0 .91-.91v-1.48l-.63-.92v-1.54l.63-.85v-1.54l-.63-.85v-1.54l.63-.92V26.79q0-.56.92-.56V18.7h-8.16q-2.32 3.24-2.95 3.31 0 1.83-1.83 1.83l-1.48 1.19q-.35-.56-.35-.91h-1.47q-.57 0-.92-3.59-.28 0-.28-.28v-.35q.84-2.67 1.2-2.67h.28v-1.48q2.81-3.3 4.5-3.94Zm63.63 1.06 2.39-1.34h.63l2.75 1.34h.7l1.05-.64h4.08q2.39.64 3.73 3.03 0 1.54 2.11 3.44v2.04q-.99 1.76-2.74 1.76-5.49-4.5-8.23-4.5-1.62 0-2.39-.63h-3.45l-.98.63h-6.47l-1.05-.63h-.71q-1.33 1.33-2.04 1.33v2.04q1.06 0 1.06.71V32.7q0 .49.98 1.05.85-.56 2.74-1.05.64.35 1.41.35h.63q3.73-1.13 5.14-2.75 0-.35 1.05-.35v-3.37q0-.56 1.34-1.41h2.39q.56 0 1.4 1.41v1.33l-.7 1.06v1.33l.7 1.06v4.08q0 .77.36 1.4-.36.64-.36.99.64.14.64.7v3.73q-.92 2.11-1.34 2.11h-1.69q-1.97 0-3.09-5.14l-1.41-1.4h-3.72l-1.06.7h-.63l-1.06-.7q-3.09 1.19-3.09 2.04v10.61q1.41 3.8 1.41 4.08 1.47 1.41 1.68 1.41h2.75l2.04-1.41h3.44v-.63h.63v.63h1.41q0-.77 4.08-2.04 2.74-1.4 3.79-2.39h1.69q0-1.12 2.74-4.43h2.04q.28 0 1.69 3.1h.35v.7h-.63v2.04q-2.11 4.92-4.15 6.12-1.26 1.89-2.74 2.39h-.99l-1.05-.64h-6.47l-1.05.64-.99-.64h-1.4l-.99.64h-3.09l-1.06-.64h-3.37l-1.06.64h-6.47l-1.05-.64-.98.64h-1.76l-.99-.64h-1.05q0 1.34-.7 1.34h-1.34q-.7 0-.7-.7v-3.38q0-.56 1.4-1.4l.99.7 2.04-1.06q.63.36 1.4.36l.71-.99v-3.09l-.71-1.06V48.8l.71-1.06v-4.43l-.71-1.05v-9.85h-.7v-.7h.7v-4.43q.71-.91.71-1.05l-.71-1.06v-2.39q.07-.63.71-.63h.63v.63h2.04v1.76h.35q.49 0 1.05-1.06v-.7q-1.26 0-2.39-1.33l-1.05.7q-.42-2.6-3.02-4.78h-4.15q-2.04-.92-2.04-1.41v-2.39q0-.49 1.33-1.34l1.06.64h.7l.99-.64h18.84l.98.64h1.41Zm34.73-1.76h1.48q.63 0 .63.91h.92q0-.91.63-.91h3.59q.63 0 .63 1.55h3.3l.92.56h2.46q.63 0 1.19-.28 2.82 0 3.59 4.5.42 3.51.91 3.94-.98 1.47-2.39 2.1 0 .36-.28.36l-2.18-1.55q0-.42-.56-1.2v-1.47q-.91 0-.91-.64 2.11 0 2.11-1.19v-.35h-2.11v1.54q-.64 0-.64-.63v-.91l.64-.92v-1.19h-.28q-.78 0-1.27 2.74h-.56q-3.38-1.41-3.38-2.11h-6.33q0 1.06-2.39 1.2-3.65 1.05-3.65 4.57 0 1.19-.92 1.19v1.48q1.13 0 1.83 1.83v.91q3.8 2.25 4.85 3.66.71 0 1.48.56h.63l.92-.56h1.47q.71.56 1.83.56l-.28 1.55v2.74h1.19v-1.27l-.63-.84q.14-.63.63-.63h3.03q1.33 1.19 1.55 1.19h2.67l3.65 3.03q2.75 3.3 2.75 5.13-.36.63-.36.91.64.14.64.63v3.03l-.64.91v3.31q-.84 2.74-1.19 2.74-1.2 2.6-3.02 3.02 0 .92-.57.92h-1.54q0 .42-2.75 2.39 0 .63-.56.63h-7.31q-.56 0-.56-.91h-5.49l-.91-.64h-1.48l-.91.64H162q0 .91-.56.91h-.35q-3.31-2.67-3.31-5.13-1.05-5.14-2.11-5.14v-2.46q0-.42 1.55-1.19h1.48q.63.07.63.63t-.92.56v1.55h.57q.35 0 1.54-2.11h.28q1.2 2.11 1.55 2.11 1.2 0 2.67 2.11 2.46.42 2.46 2.74h1.48q2.74.85 2.74 1.2v.28h4.22l.92.63h.35q1.05-1.26 4.22-3.02 1.82-1.27 1.82-3.94.29 0 .29-.35v-2.11l-2.11-4.5h-1.55q-1.55-.77-3.02-2.46l-.57-.28-.91.63h-.28q-.7-.56-3.38-.91v-.64q0-.63 1.55-.63v-1.48q-.49 0-1.27-.63h-.28q0 1.83-1.19 2.74h-.92q-2.74-.98-2.74-2.11h-1.47q-5.07-2.32-5.14-2.74l-.91-1.19v-1.55q-.85 0-1.55-2.11-.56 0-.91-3.02-.28 0-.28-.28v-2.47q.42-.63 1.19-4.21 1.69-1.27 3.02-3.94 2.75-2.11 3.94-2.11 0-1.2.64-1.2h1.47q0-.91.63-.91Zm30.59.7h3.94q.42.49 3.87.92 0 .28.35.28h1.47l.92-.56h6.33l.84.56h3.02l.92-.56h2.11l.91.56h2.39l.91-.56h3.59q4.5 2.74 4.5 4.78 1.13 0 1.76 5.06.35 0 .35.35-1.97 2.95-2.74 2.95h-.56q-2.11-.56-2.75-2.67-.42 0-2.39-2.11-.49 0-2.39-1.47-.35 0-3.3-1.2h-3.03q0 .7-.56 1.48v9.91l.56.92v1.47l-.56.92v16.52l.56.91v2.96q1.27 0 3.94 2.11.77 0 1.48 1.82v.92q-1.27 2.04-1.76 2.04h-2.11q-.7 0-1.19.35-.57-.35-1.27-.35h-1.48l-.91.63q0-.63-.56-.63h-.64l-.91.63h-2.39l-.91-.63-.85.63h-5.69q-2.04-1.2-2.75-3.3v-.92q0-.49 3.03-2.39 0-.28.28-.28h3.3q.43 0 .92-.91v-1.48l-.64-.92v-1.54l.64-.85v-1.54l-.64-.85v-1.54l.64-.92V26.79q0-.56.91-.56V18.7h-8.15q-2.33 3.24-2.96 3.31 0 1.83-1.83 1.83l-1.47 1.19q-.35-.56-.35-.91h-1.48q-.56 0-.91-3.59-.29 0-.29-.28v-.35q.85-2.67 1.2-2.67h.28v-1.48q2.81-3.3 4.5-3.94Zm60.19-.07h1.97q2.32 1.76 3.37 4.08v1.62q1.13 0 1.34 3.02.63 0 1.33 4.36 1.48 1.9 2.04 5.41.92.36 2.32 4.01 1.76 0 3.03 7.74 3.02 3.44 3.02 6.68.35 0 .35.35h-.7v.7h.7v-.7q.49 0 1.34 1.33v2.04h2.04l.98-.7h.63q1.13 0 1.69 3.37.35 0 .35.36v3.3q0 .63-2.67 2.04h-1.34l-5.41-2.04h-.63q-.99 0-.99.35l-1.68-.35h-2.39l-.99.7h-2.67q-2.39-1.4-2.39-2.03v-.64q1.05-2.18 2.39-2.67h1.34l.98.63h.35q0-1.26.7-2.04v-1.33q-1.19-2.04-2.74-6.68-2.32 0-2.32-2.04h-2.04v1.34q-.49 0-1.33.7h-5l-1.05-.7q-.7 0-1.34.35-.98 0-.98-1.69h-.7v1.34q.7 0 1.33 2.03l-1.61 3.03-1.06.7-.98-.7h-.36q-.49 0-.98.98v.35q2.46 0 2.67 3.03.71.7 2.32.98 1.41.7 2.04 2.39v.64q-2.25 3.37-2.67 3.37h-3.02l-.99-.7q-.35 0-.35.35l-1.69-.35h-1.33l-.99.7h-3.72q-1.69-.91-2.68-4.01 1.2-1.76 3.38-2.67h1.69q1.97-3.52 1.97-4.71 0-.98 1.33-3.02 0-1.62 2.67-6.4 2.6-7.74 4.36-11.04v-5.42l2.74-4.99v-.7l-.7-.99v-2.32q.99-1.75 3.73-2.74Zm.98 17.44h-1.69q0 1.05-3.65 7.38v1.41q.63.77.63 1.33h3.02q0-1.05.71-1.05h1.33q.64 0 .64 1.05h.7q0-1.05.63-1.05h1.34q0 2.04 1.69 3.02h.7v-.98q-3.24-2.74-4.71-8.37-.56-2.74-1.34-2.74Zm51.61-16.73.92-.64h.98q2.04 1.13 4.36 1.55v.63h.63q0-.91.64-.91h.28q.63 0 .63.91h2.81q.56 0 3.45 2.18 1.33 0 1.83 2.53 1.19 0 1.61 2.82.28 0 .28.28v4.36q-.84 2.81-2.53 4.07 0 1.34-1.83 1.9-.28.92-3.72 2.18-.14.78-4.08 1.83v3.8q1.12 0 1.55 1.19.63 0 .91 2.53 3.31 2.89 3.8 4.72v1.54q3.3.71 4.01 2.18.84 0 5.62 3.45.42 0 1.27 1.54v1.55q-1.06 2.11-2.18 2.81h-2.82q-.63 0-.63-.91h-3.73l-.98-.63h-3.38q-1.47-.78-3.79-5.63-.63 0-.92-2.53-.28 0-.63-.91.35-.64.35-.92-1.9-.77-1.9-2.81h2.47v-.98h-3.38q-.84 0-2.53-3.1l-3.45-4.71q-1.47 0-2.18-.56h-3.44v11.18l.98 2.18q.42 0 1.2 3.16 2.81 1.06 2.81 2.18h1.62q.56.07.56.63v1.55q-.77 1.9-1.19 1.9h-10.34q0 .91-.63.91-.64 0-.64-.91h-6.54q-2.18-1.34-2.18-1.9v-1.55q.08-.63.64-.63h2.81q0-.84 2.18-1.55v-9.35q0-.63.91-.63v-1.62h-.63v-.56h.63v-.63q-.91 0-.91-.64v-.35q0-.56.91-.56v-3.8q-.91 0-.91-.63v-9.63l-.63-.99v-1.54l.63-.92v-2.53q-.63-.77-.63-1.55h-5q-1.47-.7-2.17-2.18v-.91q0-.49 3.09-2.53 0-.28.35-.28h2.81q.71 0 1.27-.35.49.35 1.19.35h.36l.91-.63h5.91l.98.63h3.09l.92-.63h5.34Zm4.08 4.99h-2.18q0 .91-.63.91h-4.99l-.99.63h-4.99v1.55l-.63.99v.63l.63.91v.92l-.63.91v1.62l.63.91v3.1q-.63 1.26-1.55 1.26v.92q1.2 0 1.9.63h9.35l.92-.63h3.16q0-.71 3.45-2.47 0-.7 1.54-2.81v-5.27q-1.47-1.41-1.9-2.53-3.09-.78-3.09-2.18Z"/></svg>